<svg fill="none" height="24" viewBox="0 0 32 32" width="24" xmlns="http://www.w3.org/2000/svg"><g fill="#212121"><path d="m27.55 4.45 1.99 3.38c.31.51.49 1.1.5 1.73 0 1.6116-1.1683 2.9487-2.7063 3.2199-.2859 1.7906-2.0083 2.8451-3.7337 2.8451h-1.6c-.3452 0-.625-.2798-.625-.625s.2798-.625.625-.625h1.6c1.2241 0 2.2019-.6703 2.4588-1.6213-1.4197-.3155-2.508-1.5687-2.5688-3.0637-.02-.62.12-1.2.4-1.7l.01-.02c.015-.02.0275-.0425.04-.065.0125-.02249.025-.04501.04-.065l1.99-3.39c.35-.6 1.23-.6 1.58 0zm.99 5.31999c0-.98307-.797-1.78-1.78-1.78-.9831 0-1.78.79693-1.78 1.78 0 .98311.7969 1.78001 1.78 1.78001.983 0 1.78-.7969 1.78-1.78001z"/><path d="m22.4905 9.72224c-.0022-.0695-.0029-.13875-.002-.20773l-5.1385-2.96451c-1.55-.98-3.38-1.55-5.35-1.55-5.52 0-10 4.48-10 10s4.48 10 10 10c1.91 0 3.69-.53 5.2-1.46l11.84-6.83c1.32-.76 1.32-2.66.01-3.41l-.1116-.0644c-.2443.1443-.5042.2652-.7765.3594-.029.0877-.0607.1736-.0949.2576.0836.0457.1554.1158.203.2074.13.24.04.55-.21.68-.07.04-.15.06-.23.06-.0931 0-.1814-.024-.2578-.0685-.7915 1.0673-2.0618 1.6945-3.3321 1.8533l-8.2901 4.7852-.06.03c-1.16.72-2.51 1.1-3.89 1.1-4.14 0-7.5-3.36-7.5-7.5s3.37-7.5 7.5-7.5c1.42 0 2.81.4 4.01 1.16.04.03.08.05.12.07l7.9624 4.5913c.151-.0351.2853-.0858.4028-.1474-.793-.5004-1.4139-1.2542-1.7444-2.1457-.0088.0209-.019.0416-.0308.0618-.09.16-.26.25-.43.25-.09 0-.17-.03-.25-.07-.24-.14-.32-.44-.18-.68s.44-.32.68-.18c.0135.0079.0265.0163.039.0251-.0485-.2287-.0784-.46411-.0882-.70444zm-12.2505-3.90227c.27-.05.53.13.58.41.05.27-.13.53-.4.57-.03.01-.06.01-.09.01-.24 0-.44999-.17-.48999-.41-.05-.27.13-.53.39999-.58zm6.1 2.16005c-.24-.14-.31-.45-.16-.69s.45-.31.69-.16c.23.14.31.45.16.69-.09.15-.26.24-.43.24-.09-.01-.18-.03-.26-.08zm-11.87002 1.34998c.17-.22.48-.26.7-.09s.26.48.09.7c-.1.13-.25.2-.4.2-.1 0-.21-.04-.3-.11-.22-.17-.26-.48-.09-.7zm-1.88999 6.49c-.02-.27.18-.52.45-.54.28-.02.52.18.54.46.03.26-.17.51-.45.53h-.04c-.26 0-.48-.19-.5-.45zm20.75001 2.17c.24-.14.55-.06.68.18.14.24.06.55-.18.68-.08.05-.16.07-.25.07-.17 0-.34-.09-.43-.25-.14-.24-.06-.54.18-.68zm-17.76001 3.88c-.2-.19-.22-.5-.03-.71.19-.2.5-.22.71-.03.2.19.22.5.03.71-.1.11-.23.16-.37.16-.12 0-.24-.04-.34-.13zm12.09001-.61c.24-.14.55-.06.68.18.14.24.06.54-.18.68-.08.05-.16.07-.25.07-.17 0-.34-.09-.43-.25-.14-.24-.06-.55.18-.68zm-5.79 2.06c.28 0 .5.22.5.5s-.22.5-.5.5-.5-.22-.5-.5.22-.5.5-.5zm1.22-17.06999c.05-.27.32-.45.59-.39.27.05.45.32.39.59-.05.24-.26.4-.49.4-.03-.01-.06-.01-.1-.01-.27-.05-.45-.32-.39-.59zm-6.22999 1.46996c-.14-.23-.07-.54.17-.68.23-.15.54-.07.68.16.14.24.07.54-.17.69-.07.05-.16.07-.25.07-.17 0-.34-.08-.43-.24zm12.15999 1.23003c.14-.24.44-.32.68-.18s.32.44.18.68c-.09.16-.26.25-.43.25-.09 0-.17-.02-.25-.07-.24-.14-.32-.44-.18-.68zm-16.10001 3.45c.08-.27.36-.42.62-.34.26.07.41.35.34.62-.07.21-.27.36-.48.36-.05 0-.1-.01-.14-.02-.27-.08-.42-.36-.34-.62zm23.06001 4.64c-.14-.24-.06-.54.18-.68s.54-.06.68.18.06.55-.18.68c-.08.05-.17.07-.25.07-.17 0-.33-.09-.43-.25zm-22.23998 1.42c.25-.12.55-.02.67.23s.02.55-.23.67c-.07.04-.15.05-.22.05-.19-.01-.36-.11-.45-.28-.12-.25-.02-.55.23-.67zm16.57998 1.85c-.14-.24-.06-.54.18-.68s.54-.06.68.18.06.55-.18.68c-.08.04-.17.07-.25.07-.17 0-.34-.09-.43-.25zm-12.10998 2.73c.1-.26.39-.38.65-.28s.38.39.28.65c-.08.2-.27004.32-.47004.32-.05998-.01-.11997-.02-.17996-.04-.26-.1-.38-.39-.28-.65zm6.64998-.27c.26-.1.55.03.65.29s-.03.55-.29.65c-.06.02-.12.03-.18.03-.21 0-.4-.13-.47-.32-.1-.26.03-.55.29-.65z"/><path d="m12.5 29c-5.37725 0-9.80915-4.045-10.42707-9.2578 1.77203 3.7004 5.55254 6.2578 9.92707 6.2578 2.0923 0 4.0489-.5798 5.7119-1.6008l8.7865-5.0686-6.3784 6.3994c-1.92 2.01-4.62 3.27-7.62 3.27z"/><path d="m11.64 20c2.7614 0 5-2.2386 5-5s-2.2386-5-5-5c-2.76141 0-4.99999 2.2386-4.99999 5s2.23858 5 4.99999 5z"/></g></svg>